<svg width="192" height="28" viewBox="0 0 192 28" fill="none" xmlns="http://www.w3.org/2000/svg">
<rect x="2" y="2" width="24" height="24" rx="12" fill="url(#paint0_radial_1_41)"/>
<path d="M8.74936 10.3949C10.194 10.3238 11.6434 11.1605 12.2728 12.9457C12.4014 13.3117 12.209 13.7131 11.8431 13.8422C11.4773 13.971 11.076 13.779 10.9466 13.4135C10.5191 12.2009 9.62751 11.7605 8.8187 11.8002C7.97728 11.8418 7.16548 12.3994 6.89682 13.3676C6.79279 13.7413 6.40449 13.9604 6.03061 13.8568C5.65691 13.7529 5.43803 13.3654 5.54135 12.9916C5.98111 11.4069 7.33686 10.4647 8.74936 10.3949ZM18.9212 10.3949C20.3659 10.3238 21.8153 11.1605 22.4447 12.9457C22.5733 13.3117 22.3809 13.7131 22.015 13.8422C21.6491 13.971 21.2479 13.779 21.1185 13.4135C20.691 12.2009 19.7994 11.7605 18.9906 11.8002C18.1492 11.8418 17.3374 12.3994 17.0687 13.3676C16.9647 13.7413 16.5764 13.9604 16.2025 13.8568C15.8288 13.7529 15.6099 13.3654 15.7132 12.9916C16.153 11.4069 17.5087 10.4647 18.9212 10.3949Z" fill="#00233C"/>
<path d="M37.5552 21V6.8H41.0952C42.3885 6.8 43.5018 7.08 44.4352 7.64C45.3818 8.18667 46.1018 8.99333 46.5952 10.06C47.1018 11.1133 47.3552 12.4 47.3552 13.92C47.3552 15.44 47.1018 16.7267 46.5952 17.78C46.1018 18.8333 45.3818 19.6333 44.4352 20.18C43.5018 20.7267 42.3885 21 41.0952 21H37.5552ZM40.0152 18.72H41.0952C42.2818 18.72 43.1952 18.32 43.8352 17.52C44.4752 16.72 44.7952 15.52 44.7952 13.92C44.7952 12.3067 44.4752 11.1 43.8352 10.3C43.1952 9.48667 42.2818 9.08 41.0952 9.08H40.0152V18.72ZM50.0473 21L48.5473 6.8H50.9473L51.9673 18.56H51.7273L53.1073 8.4H54.9473L56.3273 18.56H56.0873L57.1073 6.8H59.5073L58.0073 21H55.1473L53.7873 11.4H54.2673L52.9073 21H50.0473ZM60.4395 21L64.4795 6.8H67.5595L71.5995 21H69.0595L66.0195 9.6L62.9795 21H60.4395ZM62.9195 17.64L63.5995 15.42H68.4395L69.1195 17.64H62.9195ZM73.5317 21V18.72H76.7717V9.08H73.5317V6.8H82.4917V9.08H79.2517V18.72H82.4917V21H73.5317ZM85.5239 21V6.8H89.0639C90.3572 6.8 91.4706 7.08 92.4039 7.64C93.3506 8.18667 94.0706 8.99333 94.5639 10.06C95.0706 11.1133 95.3239 12.4 95.3239 13.92C95.3239 15.44 95.0706 16.7267 94.5639 17.78C94.0706 18.8333 93.3506 19.6333 92.4039 20.18C91.4706 20.7267 90.3572 21 89.0639 21H85.5239ZM87.9839 18.72H89.0639C90.2506 18.72 91.1639 18.32 91.8039 17.52C92.4439 16.72 92.7639 15.52 92.7639 13.92C92.7639 12.3067 92.4439 11.1 91.8039 10.3C91.1639 9.48667 90.2506 9.08 89.0639 9.08H87.9839V18.72ZM96.4161 21L100.456 6.8H103.536L107.576 21H105.036L101.996 9.6L98.9561 21H96.4161ZM98.8961 17.64L99.5761 15.42H104.416L105.096 17.64H98.8961ZM112.748 21V9.08H108.788V6.8H119.188V9.08H115.228V21H112.748ZM124.74 21V9.08H120.78V6.8H131.18V9.08H127.22V21H124.74ZM132.393 21L136.433 6.8H139.513L143.553 21H141.013L137.973 9.6L134.933 21H132.393ZM134.873 17.64L135.553 15.42H140.393L141.073 17.64H134.873Z" fill="#97D4FF"/>
<path d="M155.932 21V6.8H158.412V20.2L156.712 18.72H164.892V21H155.932ZM170.524 21.24C169.857 21.24 169.257 21.12 168.724 20.88C168.191 20.64 167.764 20.3 167.444 19.86C167.124 19.4067 166.964 18.8733 166.964 18.26C166.964 17.3533 167.244 16.6533 167.804 16.16C168.377 15.6533 169.197 15.2867 170.264 15.06L173.604 14.36C173.604 13.6133 173.444 13.0467 173.124 12.66C172.817 12.26 172.331 12.06 171.664 12.06C171.051 12.06 170.577 12.2067 170.244 12.5C169.911 12.7933 169.691 13.18 169.584 13.66L167.124 13.52C167.324 12.4933 167.817 11.6667 168.604 11.04C169.404 10.4 170.411 10.08 171.624 10.08C173.077 10.08 174.164 10.4667 174.884 11.24C175.604 12.0133 175.964 13.0933 175.964 14.48V18.46C175.964 18.7267 176.017 18.9133 176.124 19.02C176.231 19.1133 176.377 19.16 176.564 19.16H177.084V21C177.004 21.0133 176.871 21.0267 176.684 21.04C176.511 21.0667 176.331 21.08 176.144 21.08C175.637 21.08 175.204 20.9933 174.844 20.82C174.497 20.6467 174.231 20.3867 174.044 20.04C173.857 19.68 173.757 19.24 173.744 18.72H174.044C173.977 19.2 173.784 19.6333 173.464 20.02C173.144 20.3933 172.731 20.6933 172.224 20.92C171.731 21.1333 171.164 21.24 170.524 21.24ZM170.944 19.4C171.517 19.4 172.004 19.3 172.404 19.1C172.804 18.8867 173.104 18.5933 173.304 18.22C173.504 17.8333 173.604 17.3733 173.604 16.84V16.12L170.944 16.68C170.371 16.7867 169.971 16.96 169.744 17.2C169.531 17.4267 169.424 17.7333 169.424 18.12C169.424 18.52 169.557 18.8333 169.824 19.06C170.091 19.2867 170.464 19.4 170.944 19.4ZM184.996 21.24C184.249 21.24 183.596 21.0667 183.036 20.72C182.489 20.36 182.069 19.9 181.776 19.34L181.716 21H179.476V6.8H181.836V11.82C182.103 11.34 182.509 10.9333 183.056 10.6C183.616 10.2533 184.263 10.08 184.996 10.08C185.889 10.08 186.663 10.3067 187.316 10.76C187.969 11.2 188.469 11.84 188.816 12.68C189.176 13.5067 189.356 14.5 189.356 15.66C189.356 16.82 189.176 17.82 188.816 18.66C188.469 19.4867 187.969 20.1267 187.316 20.58C186.663 21.02 185.889 21.24 184.996 21.24ZM184.436 19.12C185.223 19.12 185.829 18.82 186.256 18.22C186.683 17.6067 186.896 16.7533 186.896 15.66C186.896 14.5667 186.683 13.72 186.256 13.12C185.829 12.5067 185.236 12.2 184.476 12.2C183.929 12.2 183.456 12.34 183.056 12.62C182.669 12.8867 182.369 13.28 182.156 13.8C181.943 14.3067 181.836 14.9267 181.836 15.66C181.836 16.38 181.943 17 182.156 17.52C182.383 18.0267 182.689 18.42 183.076 18.7C183.463 18.98 183.916 19.12 184.436 19.12Z" fill="#97D4FF"/>
<defs>
<radialGradient id="paint0_radial_1_41" cx="0" cy="0" r="1" gradientUnits="userSpaceOnUse" gradientTransform="translate(8.1875 6.11328) rotate(53.479) scale(17.7027)">
<stop stop-color="white"/>
<stop offset="1" stop-color="#97D4FF"/>
</radialGradient>
</defs>
</svg>
