<svg width="512" height="512" viewBox="0 0 512 512" fill="none" xmlns="http://www.w3.org/2000/svg">
<rect width="512" height="512" rx="60" fill="#FFEADB"/>
<path d="M165.416 164.752C201.256 164.752 227.795 172.432 245.032 187.792C262.44 202.981 271.144 224.827 271.144 253.328C271.144 271.931 266.877 288.229 258.344 302.224C249.811 316.048 237.437 326.8 221.224 334.48C205.181 342.16 185.811 346 163.112 346C160.381 346 156.712 345.915 152.104 345.744C147.667 345.573 142.973 345.488 138.024 345.488C133.075 345.317 128.637 345.232 124.712 345.232C116.179 345.232 107.816 345.317 99.624 345.488C91.6027 345.488 85.1173 345.659 80.168 346V340.88C85.4587 340.539 89.384 339.856 91.944 338.832C94.504 337.808 96.2107 335.76 97.064 332.688C97.9173 329.616 98.344 325.008 98.344 318.864V191.888C98.344 185.573 97.9173 180.965 97.064 178.064C96.2107 174.992 94.4187 172.944 91.688 171.92C89.128 170.725 85.288 170.043 80.168 169.872V164.752C85.1173 164.923 91.6027 165.179 99.624 165.52C107.816 165.691 116.008 165.691 124.2 165.52C130.515 165.349 137.597 165.179 145.448 165.008C153.469 164.837 160.125 164.752 165.416 164.752ZM169.256 169.36C161.405 169.36 156.285 170.811 153.896 173.712C151.507 176.613 150.312 182.501 150.312 191.376V319.376C150.312 328.251 151.507 334.139 153.896 337.04C156.456 339.941 161.661 341.392 169.512 341.392C181.117 341.392 190.419 338.064 197.416 331.408C204.413 324.581 209.448 314.683 212.52 301.712C215.763 288.741 217.384 272.955 217.384 254.352C217.384 235.237 215.677 219.451 212.264 206.992C209.021 194.363 203.816 184.976 196.648 178.832C189.651 172.517 180.52 169.36 169.256 169.36ZM357.812 161.168C368.905 161.168 377.524 162.277 383.668 164.496C389.812 166.715 395.017 169.019 399.284 171.408C401.332 172.603 402.953 173.541 404.148 174.224C405.513 174.736 406.793 174.992 407.988 174.992C409.695 174.992 410.889 174.053 411.572 172.176C412.425 170.299 413.108 167.483 413.62 163.728H419.508C419.337 167.312 419.081 171.493 418.74 176.272C418.569 181.051 418.399 187.365 418.228 195.216C418.228 203.067 418.228 213.392 418.228 226.192H412.34C411.657 216.805 409.439 207.675 405.684 198.8C402.1 189.925 397.065 182.587 390.58 176.784C384.265 170.981 376.671 168.08 367.796 168.08C360.287 168.08 354.057 170.128 349.108 174.224C344.159 178.32 341.684 184.208 341.684 191.888C341.684 198.203 343.22 203.664 346.292 208.272C349.364 212.709 354.143 217.403 360.628 222.352C367.284 227.301 375.988 233.531 386.74 241.04C394.42 246.331 401.332 251.621 407.476 256.912C413.791 262.203 418.825 268.176 422.58 274.832C426.335 281.488 428.212 289.509 428.212 298.896C428.212 310.331 424.969 319.803 418.484 327.312C412.169 334.821 403.721 340.453 393.14 344.208C382.559 347.792 371.039 349.584 358.58 349.584C346.975 349.584 337.673 348.56 330.676 346.512C323.849 344.464 318.047 342.331 313.268 340.112C309.513 337.723 306.612 336.528 304.564 336.528C302.857 336.528 301.577 337.467 300.724 339.344C300.041 341.221 299.444 344.037 298.932 347.792H293.044C293.385 343.355 293.556 338.235 293.556 332.432C293.727 326.459 293.812 318.779 293.812 309.392C293.983 300.005 294.068 288.059 294.068 273.552H299.956C300.639 285.499 302.516 296.677 305.588 307.088C308.831 317.499 313.695 325.947 320.18 332.432C326.836 338.747 335.625 341.904 346.548 341.904C352.863 341.904 358.239 340.965 362.676 339.088C367.284 337.04 370.868 334.139 373.428 330.384C375.988 326.629 377.268 322.107 377.268 316.816C377.268 309.648 375.647 303.419 372.404 298.128C369.161 292.667 364.724 287.632 359.092 283.024C353.631 278.245 347.231 273.467 339.892 268.688C331.871 263.227 324.361 257.765 317.364 252.304C310.367 246.843 304.735 240.699 300.468 233.872C296.372 227.045 294.324 218.939 294.324 209.552C294.324 198.288 297.311 189.157 303.284 182.16C309.257 174.992 317.108 169.701 326.836 166.288C336.564 162.875 346.889 161.168 357.812 161.168Z" fill="#B74C00"/>
</svg>
